<svg fill="none" xmlns="http://www.w3.org/2000/svg" viewBox="0 0 60 60" class="technologies-image"><g clip-path="url(#typescript_svg__a)"><path d="M57.188 0H2.812A2.813 2.813 0 0 0 0 2.813v54.374A2.813 2.813 0 0 0 2.813 60h54.374A2.813 2.813 0 0 0 60 57.187V2.813A2.813 2.813 0 0 0 57.187 0Z" fill="#3178C6"/><path fill-rule="evenodd" clip-rule="evenodd" d="M34.81 46.626V53.2c1.066.548 2.325.959 3.78 1.233 1.454.274 2.987.41 4.598.41 1.57 0 3.063-.15 4.476-.451 1.414-.302 2.653-.798 3.718-1.49a7.584 7.584 0 0 0 2.53-2.712c.621-1.116.932-2.496.932-4.14 0-1.191-.178-2.236-.533-3.133a7.327 7.327 0 0 0-1.536-2.393 11.254 11.254 0 0 0-2.407-1.88 25.747 25.747 0 0 0-3.165-1.572 39.73 39.73 0 0 1-2.315-1.038 11.727 11.727 0 0 1-1.74-1.027c-.479-.35-.847-.719-1.107-1.11a2.34 2.34 0 0 1-.389-1.324c0-.452.116-.86.348-1.223.233-.363.56-.674.983-.935.424-.26.943-.462 1.557-.606a8.996 8.996 0 0 1 2.049-.216 13.649 13.649 0 0 1 3.564.503 12.74 12.74 0 0 1 1.792.648c.58.26 1.117.562 1.608.904v-6.143a15.955 15.955 0 0 0-3.267-.853c-1.181-.185-2.536-.277-4.066-.277-1.557 0-3.032.168-4.425.503-1.392.336-2.618.86-3.676 1.572a7.842 7.842 0 0 0-2.51 2.722c-.614 1.103-.922 2.421-.922 3.955 0 1.959.564 3.63 1.69 5.013 1.127 1.384 2.837 2.555 5.132 3.514.901.37 1.74.732 2.52 1.088.778.357 1.45.727 2.017 1.11.567.384 1.014.801 1.341 1.253.328.452.492.966.492 1.541 0 .425-.102.819-.307 1.181-.205.363-.516.678-.932.946-.417.267-.935.476-1.557.626-.621.15-1.348.226-2.181.226a12.581 12.581 0 0 1-8.091-3ZM23.767 30.26h8.577v-5.416H8.437v5.416h8.536v24.115h6.794V30.26Z" fill="#fff"/></g><defs><clipPath id="typescript_svg__a"><path fill="#fff" d="M0 0h60v60H0z"/></clipPath></defs></svg>