<svg fill="none" xmlns="http://www.w3.org/2000/svg" viewBox="0 0 100 60" class="technologies-image"><g clip-path="url(#teh_nextjs_svg__a)" fill="#fff"><path d="M23.957 15.981h18.597v1.471H25.662v11.071h15.885v1.472H25.662V42.15h17.086v1.471H23.957v-27.64Zm20.263 0h1.976l8.757 12.155 8.95-12.155L76.075.541l-20 28.873L66.382 43.62h-2.053l-9.376-12.93-9.415 12.93h-2.015l10.383-14.207L44.22 15.98Zm22.898 1.471v-1.471h21.193v1.471h-9.763v26.169h-1.705V17.452h-9.725ZM.69 15.981h2.132l29.384 43.76-12.143-16.12-17.59-25.55-.077 25.55H.69V15.98ZM88.14 41.706c.352 0 .609-.269.609-.616a.598.598 0 0 0-.61-.615.6.6 0 0 0-.61.615.6.6 0 0 0 .61.616Zm1.674-1.62c0 1.025.743 1.694 1.825 1.694 1.153 0 1.85-.69 1.85-1.888v-4.219h-.93v4.215c0 .665-.336 1.02-.928 1.02-.531 0-.892-.33-.904-.822h-.913Zm4.889-.053c.066 1.066.958 1.747 2.285 1.747 1.418 0 2.305-.715 2.305-1.855 0-.897-.506-1.392-1.733-1.677l-.66-.162c-.779-.181-1.094-.425-1.094-.85 0-.538.49-.89 1.223-.89.697 0 1.178.344 1.265.893h.904c-.054-1.004-.942-1.71-2.156-1.71-1.307 0-2.177.706-2.177 1.768 0 .876.493 1.397 1.575 1.649l.772.186c.791.186 1.14.458 1.14.913 0 .529-.548.913-1.294.913-.8 0-1.356-.36-1.435-.925h-.92Z"/></g><defs><clipPath id="teh_nextjs_svg__a"><path fill="#fff" transform="translate(.594 .404)" d="M0 0h98.813v59.192H0z"/></clipPath></defs></svg>